<mxfile host="Electron" agent="Mozilla/5.0 (Windows NT 10.0; Win64; x64) AppleWebKit/537.36 (KHTML, like Gecko) draw.io/26.0.4 Chrome/128.0.6613.186 Electron/32.2.5 Safari/537.36" version="26.0.4">
  <diagram name="Page-1" id="U4aCnkxxnpDXMF_4HtuA">
    <mxGraphModel dx="1098" dy="1920" grid="1" gridSize="10" guides="1" tooltips="1" connect="1" arrows="1" fold="1" page="1" pageScale="1" pageWidth="850" pageHeight="1100" math="0" shadow="0">
      <root>
        <mxCell id="0" />
        <mxCell id="1" parent="0" />
        <mxCell id="mt9TYMFydwfh3wVz72f7-9" style="edgeStyle=orthogonalEdgeStyle;rounded=0;orthogonalLoop=1;jettySize=auto;html=1;exitX=0.5;exitY=1;exitDx=0;exitDy=0;" edge="1" parent="1" source="mt9TYMFydwfh3wVz72f7-1" target="mt9TYMFydwfh3wVz72f7-5">
          <mxGeometry relative="1" as="geometry" />
        </mxCell>
        <mxCell id="mt9TYMFydwfh3wVz72f7-39" style="edgeStyle=orthogonalEdgeStyle;rounded=0;orthogonalLoop=1;jettySize=auto;html=1;exitX=0.5;exitY=0;exitDx=0;exitDy=0;entryX=0.5;entryY=1;entryDx=0;entryDy=0;" edge="1" parent="1" source="mt9TYMFydwfh3wVz72f7-1" target="mt9TYMFydwfh3wVz72f7-2">
          <mxGeometry relative="1" as="geometry" />
        </mxCell>
        <mxCell id="mt9TYMFydwfh3wVz72f7-62" style="edgeStyle=orthogonalEdgeStyle;rounded=0;orthogonalLoop=1;jettySize=auto;html=1;exitX=0;exitY=0;exitDx=0;exitDy=0;entryX=1;entryY=0.5;entryDx=0;entryDy=0;" edge="1" parent="1" source="mt9TYMFydwfh3wVz72f7-1" target="mt9TYMFydwfh3wVz72f7-3">
          <mxGeometry relative="1" as="geometry" />
        </mxCell>
        <mxCell id="mt9TYMFydwfh3wVz72f7-81" style="edgeStyle=orthogonalEdgeStyle;rounded=0;orthogonalLoop=1;jettySize=auto;html=1;exitX=0;exitY=1;exitDx=0;exitDy=0;entryX=1;entryY=0.5;entryDx=0;entryDy=0;" edge="1" parent="1" source="mt9TYMFydwfh3wVz72f7-1" target="mt9TYMFydwfh3wVz72f7-4">
          <mxGeometry relative="1" as="geometry" />
        </mxCell>
        <mxCell id="mt9TYMFydwfh3wVz72f7-91" style="edgeStyle=orthogonalEdgeStyle;rounded=0;orthogonalLoop=1;jettySize=auto;html=1;exitX=1;exitY=0;exitDx=0;exitDy=0;entryX=0;entryY=0.5;entryDx=0;entryDy=0;" edge="1" parent="1" source="mt9TYMFydwfh3wVz72f7-1" target="mt9TYMFydwfh3wVz72f7-6">
          <mxGeometry relative="1" as="geometry" />
        </mxCell>
        <mxCell id="mt9TYMFydwfh3wVz72f7-128" style="edgeStyle=orthogonalEdgeStyle;rounded=0;orthogonalLoop=1;jettySize=auto;html=1;exitX=1;exitY=1;exitDx=0;exitDy=0;entryX=0;entryY=0.5;entryDx=0;entryDy=0;" edge="1" parent="1" source="mt9TYMFydwfh3wVz72f7-1" target="mt9TYMFydwfh3wVz72f7-7">
          <mxGeometry relative="1" as="geometry" />
        </mxCell>
        <mxCell id="mt9TYMFydwfh3wVz72f7-133" style="edgeStyle=orthogonalEdgeStyle;rounded=0;orthogonalLoop=1;jettySize=auto;html=1;exitX=1;exitY=0.5;exitDx=0;exitDy=0;entryX=0;entryY=0.5;entryDx=0;entryDy=0;" edge="1" parent="1" source="mt9TYMFydwfh3wVz72f7-1" target="mt9TYMFydwfh3wVz72f7-8">
          <mxGeometry relative="1" as="geometry" />
        </mxCell>
        <mxCell id="mt9TYMFydwfh3wVz72f7-1" value="&lt;font style=&quot;color: rgb(255, 255, 255);&quot;&gt;&lt;b&gt;Technology Stack&lt;/b&gt;&lt;/font&gt;" style="rounded=1;whiteSpace=wrap;html=1;fillColor=#f5f5f5;gradientColor=#000000;strokeColor=#666666;" vertex="1" parent="1">
          <mxGeometry x="640" y="60" width="120" height="60" as="geometry" />
        </mxCell>
        <mxCell id="mt9TYMFydwfh3wVz72f7-37" style="edgeStyle=orthogonalEdgeStyle;rounded=0;orthogonalLoop=1;jettySize=auto;html=1;exitX=0.5;exitY=0;exitDx=0;exitDy=0;entryX=0.5;entryY=1;entryDx=0;entryDy=0;fillColor=#d5e8d4;strokeColor=#82b366;" edge="1" parent="1" source="mt9TYMFydwfh3wVz72f7-2" target="mt9TYMFydwfh3wVz72f7-16">
          <mxGeometry relative="1" as="geometry" />
        </mxCell>
        <mxCell id="mt9TYMFydwfh3wVz72f7-38" style="edgeStyle=orthogonalEdgeStyle;rounded=0;orthogonalLoop=1;jettySize=auto;html=1;exitX=0.5;exitY=0;exitDx=0;exitDy=0;entryX=0.5;entryY=1;entryDx=0;entryDy=0;fillColor=#d5e8d4;strokeColor=#82b366;" edge="1" parent="1" source="mt9TYMFydwfh3wVz72f7-2" target="mt9TYMFydwfh3wVz72f7-17">
          <mxGeometry relative="1" as="geometry" />
        </mxCell>
        <mxCell id="mt9TYMFydwfh3wVz72f7-2" value="LLMs" style="rounded=1;whiteSpace=wrap;html=1;fillColor=#6d8764;fontColor=#ffffff;strokeColor=#3A5431;" vertex="1" parent="1">
          <mxGeometry x="640" y="-100" width="120" height="60" as="geometry" />
        </mxCell>
        <mxCell id="mt9TYMFydwfh3wVz72f7-63" style="edgeStyle=orthogonalEdgeStyle;rounded=0;orthogonalLoop=1;jettySize=auto;html=1;exitX=0;exitY=0.5;exitDx=0;exitDy=0;entryX=1;entryY=0.5;entryDx=0;entryDy=0;fillColor=#e1d5e7;strokeColor=#9673a6;" edge="1" parent="1" source="mt9TYMFydwfh3wVz72f7-3" target="mt9TYMFydwfh3wVz72f7-53">
          <mxGeometry relative="1" as="geometry" />
        </mxCell>
        <mxCell id="mt9TYMFydwfh3wVz72f7-64" style="edgeStyle=orthogonalEdgeStyle;rounded=0;orthogonalLoop=1;jettySize=auto;html=1;exitX=0;exitY=0.5;exitDx=0;exitDy=0;entryX=1;entryY=0.5;entryDx=0;entryDy=0;fillColor=#e1d5e7;strokeColor=#9673a6;" edge="1" parent="1" source="mt9TYMFydwfh3wVz72f7-3" target="mt9TYMFydwfh3wVz72f7-54">
          <mxGeometry relative="1" as="geometry" />
        </mxCell>
        <mxCell id="mt9TYMFydwfh3wVz72f7-3" value="Embedding" style="rounded=1;whiteSpace=wrap;html=1;fillColor=#76608a;fontColor=#ffffff;strokeColor=#432D57;" vertex="1" parent="1">
          <mxGeometry x="320" y="-40" width="120" height="60" as="geometry" />
        </mxCell>
        <mxCell id="mt9TYMFydwfh3wVz72f7-77" style="edgeStyle=orthogonalEdgeStyle;rounded=0;orthogonalLoop=1;jettySize=auto;html=1;exitX=0.5;exitY=1;exitDx=0;exitDy=0;entryX=1;entryY=0.5;entryDx=0;entryDy=0;fillColor=#bac8d3;strokeColor=#23445d;" edge="1" parent="1" source="mt9TYMFydwfh3wVz72f7-4" target="mt9TYMFydwfh3wVz72f7-72">
          <mxGeometry relative="1" as="geometry" />
        </mxCell>
        <mxCell id="mt9TYMFydwfh3wVz72f7-78" style="edgeStyle=orthogonalEdgeStyle;rounded=0;orthogonalLoop=1;jettySize=auto;html=1;exitX=0.5;exitY=1;exitDx=0;exitDy=0;entryX=1;entryY=0.5;entryDx=0;entryDy=0;fillColor=#bac8d3;strokeColor=#23445d;" edge="1" parent="1" source="mt9TYMFydwfh3wVz72f7-4" target="mt9TYMFydwfh3wVz72f7-73">
          <mxGeometry relative="1" as="geometry" />
        </mxCell>
        <mxCell id="mt9TYMFydwfh3wVz72f7-79" style="edgeStyle=orthogonalEdgeStyle;rounded=0;orthogonalLoop=1;jettySize=auto;html=1;exitX=0.5;exitY=1;exitDx=0;exitDy=0;entryX=1;entryY=0.5;entryDx=0;entryDy=0;fillColor=#bac8d3;strokeColor=#23445d;" edge="1" parent="1" source="mt9TYMFydwfh3wVz72f7-4" target="mt9TYMFydwfh3wVz72f7-74">
          <mxGeometry relative="1" as="geometry" />
        </mxCell>
        <mxCell id="mt9TYMFydwfh3wVz72f7-80" style="edgeStyle=orthogonalEdgeStyle;rounded=0;orthogonalLoop=1;jettySize=auto;html=1;exitX=0.5;exitY=1;exitDx=0;exitDy=0;entryX=1;entryY=0.5;entryDx=0;entryDy=0;fillColor=#bac8d3;strokeColor=#23445d;" edge="1" parent="1" source="mt9TYMFydwfh3wVz72f7-4" target="mt9TYMFydwfh3wVz72f7-75">
          <mxGeometry relative="1" as="geometry" />
        </mxCell>
        <mxCell id="mt9TYMFydwfh3wVz72f7-100" style="edgeStyle=orthogonalEdgeStyle;rounded=0;orthogonalLoop=1;jettySize=auto;html=1;exitX=0.5;exitY=1;exitDx=0;exitDy=0;entryX=1;entryY=0.5;entryDx=0;entryDy=0;fillColor=#bac8d3;strokeColor=#23445d;" edge="1" parent="1" source="mt9TYMFydwfh3wVz72f7-4" target="mt9TYMFydwfh3wVz72f7-76">
          <mxGeometry relative="1" as="geometry" />
        </mxCell>
        <mxCell id="mt9TYMFydwfh3wVz72f7-102" style="edgeStyle=orthogonalEdgeStyle;rounded=0;orthogonalLoop=1;jettySize=auto;html=1;exitX=0.5;exitY=1;exitDx=0;exitDy=0;entryX=1;entryY=0.5;entryDx=0;entryDy=0;fillColor=#bac8d3;strokeColor=#23445d;" edge="1" parent="1" source="mt9TYMFydwfh3wVz72f7-4" target="mt9TYMFydwfh3wVz72f7-101">
          <mxGeometry relative="1" as="geometry" />
        </mxCell>
        <mxCell id="mt9TYMFydwfh3wVz72f7-104" style="edgeStyle=orthogonalEdgeStyle;rounded=0;orthogonalLoop=1;jettySize=auto;html=1;exitX=0.5;exitY=1;exitDx=0;exitDy=0;entryX=1;entryY=0.5;entryDx=0;entryDy=0;fillColor=#bac8d3;strokeColor=#23445d;" edge="1" parent="1" source="mt9TYMFydwfh3wVz72f7-4" target="mt9TYMFydwfh3wVz72f7-103">
          <mxGeometry relative="1" as="geometry" />
        </mxCell>
        <mxCell id="mt9TYMFydwfh3wVz72f7-4" value="Frameworks" style="rounded=1;whiteSpace=wrap;html=1;fillColor=#647687;fontColor=#ffffff;strokeColor=#314354;" vertex="1" parent="1">
          <mxGeometry x="320" y="160" width="120" height="60" as="geometry" />
        </mxCell>
        <mxCell id="mt9TYMFydwfh3wVz72f7-22" style="edgeStyle=orthogonalEdgeStyle;rounded=0;orthogonalLoop=1;jettySize=auto;html=1;exitX=0.5;exitY=1;exitDx=0;exitDy=0;entryX=0.5;entryY=0;entryDx=0;entryDy=0;fillColor=#dae8fc;strokeColor=#6c8ebf;" edge="1" parent="1" source="mt9TYMFydwfh3wVz72f7-5" target="mt9TYMFydwfh3wVz72f7-20">
          <mxGeometry relative="1" as="geometry" />
        </mxCell>
        <mxCell id="mt9TYMFydwfh3wVz72f7-23" style="edgeStyle=orthogonalEdgeStyle;rounded=0;orthogonalLoop=1;jettySize=auto;html=1;exitX=0.5;exitY=1;exitDx=0;exitDy=0;fillColor=#dae8fc;strokeColor=#6c8ebf;" edge="1" parent="1" source="mt9TYMFydwfh3wVz72f7-5" target="mt9TYMFydwfh3wVz72f7-21">
          <mxGeometry relative="1" as="geometry" />
        </mxCell>
        <mxCell id="mt9TYMFydwfh3wVz72f7-5" value="Data Extraction" style="rounded=1;whiteSpace=wrap;html=1;fillColor=#1ba1e2;fontColor=#ffffff;strokeColor=#006EAF;" vertex="1" parent="1">
          <mxGeometry x="640" y="240" width="120" height="60" as="geometry" />
        </mxCell>
        <mxCell id="mt9TYMFydwfh3wVz72f7-92" style="edgeStyle=orthogonalEdgeStyle;rounded=0;orthogonalLoop=1;jettySize=auto;html=1;exitX=0.5;exitY=0;exitDx=0;exitDy=0;entryX=0;entryY=0.5;entryDx=0;entryDy=0;fillColor=#f8cecc;strokeColor=#b85450;" edge="1" parent="1" source="mt9TYMFydwfh3wVz72f7-6" target="mt9TYMFydwfh3wVz72f7-87">
          <mxGeometry relative="1" as="geometry" />
        </mxCell>
        <mxCell id="mt9TYMFydwfh3wVz72f7-93" style="edgeStyle=orthogonalEdgeStyle;rounded=0;orthogonalLoop=1;jettySize=auto;html=1;exitX=0.5;exitY=0;exitDx=0;exitDy=0;entryX=0;entryY=0.5;entryDx=0;entryDy=0;fillColor=#f8cecc;strokeColor=#b85450;" edge="1" parent="1" source="mt9TYMFydwfh3wVz72f7-6" target="mt9TYMFydwfh3wVz72f7-85">
          <mxGeometry relative="1" as="geometry" />
        </mxCell>
        <mxCell id="mt9TYMFydwfh3wVz72f7-94" style="edgeStyle=orthogonalEdgeStyle;rounded=0;orthogonalLoop=1;jettySize=auto;html=1;exitX=0.5;exitY=0;exitDx=0;exitDy=0;entryX=0;entryY=0.5;entryDx=0;entryDy=0;fillColor=#f8cecc;strokeColor=#b85450;" edge="1" parent="1" source="mt9TYMFydwfh3wVz72f7-6" target="mt9TYMFydwfh3wVz72f7-84">
          <mxGeometry relative="1" as="geometry" />
        </mxCell>
        <mxCell id="mt9TYMFydwfh3wVz72f7-95" style="edgeStyle=orthogonalEdgeStyle;rounded=0;orthogonalLoop=1;jettySize=auto;html=1;exitX=0.5;exitY=0;exitDx=0;exitDy=0;entryX=0;entryY=0.5;entryDx=0;entryDy=0;fillColor=#f8cecc;strokeColor=#b85450;" edge="1" parent="1" source="mt9TYMFydwfh3wVz72f7-6" target="mt9TYMFydwfh3wVz72f7-83">
          <mxGeometry relative="1" as="geometry" />
        </mxCell>
        <mxCell id="mt9TYMFydwfh3wVz72f7-96" style="edgeStyle=orthogonalEdgeStyle;rounded=0;orthogonalLoop=1;jettySize=auto;html=1;exitX=0.5;exitY=0;exitDx=0;exitDy=0;entryX=0;entryY=0.5;entryDx=0;entryDy=0;fillColor=#f8cecc;strokeColor=#b85450;" edge="1" parent="1" source="mt9TYMFydwfh3wVz72f7-6" target="mt9TYMFydwfh3wVz72f7-82">
          <mxGeometry relative="1" as="geometry" />
        </mxCell>
        <mxCell id="mt9TYMFydwfh3wVz72f7-97" style="edgeStyle=orthogonalEdgeStyle;rounded=0;orthogonalLoop=1;jettySize=auto;html=1;exitX=0.5;exitY=0;exitDx=0;exitDy=0;entryX=0;entryY=0.5;entryDx=0;entryDy=0;fillColor=#f8cecc;strokeColor=#b85450;" edge="1" parent="1" source="mt9TYMFydwfh3wVz72f7-6" target="mt9TYMFydwfh3wVz72f7-86">
          <mxGeometry relative="1" as="geometry" />
        </mxCell>
        <mxCell id="mt9TYMFydwfh3wVz72f7-98" style="edgeStyle=orthogonalEdgeStyle;rounded=0;orthogonalLoop=1;jettySize=auto;html=1;exitX=0.5;exitY=0;exitDx=0;exitDy=0;entryX=0;entryY=0.5;entryDx=0;entryDy=0;fillColor=#f8cecc;strokeColor=#b85450;" edge="1" parent="1" source="mt9TYMFydwfh3wVz72f7-6" target="mt9TYMFydwfh3wVz72f7-88">
          <mxGeometry relative="1" as="geometry" />
        </mxCell>
        <mxCell id="mt9TYMFydwfh3wVz72f7-6" value="Vector Databases" style="rounded=1;whiteSpace=wrap;html=1;fillColor=#a20025;fontColor=#ffffff;strokeColor=#6F0000;" vertex="1" parent="1">
          <mxGeometry x="960" y="-40" width="120" height="60" as="geometry" />
        </mxCell>
        <mxCell id="mt9TYMFydwfh3wVz72f7-129" style="edgeStyle=orthogonalEdgeStyle;rounded=0;orthogonalLoop=1;jettySize=auto;html=1;exitX=0.5;exitY=1;exitDx=0;exitDy=0;entryX=0;entryY=0.5;entryDx=0;entryDy=0;fillColor=#fff2cc;strokeColor=#d6b656;" edge="1" parent="1" source="mt9TYMFydwfh3wVz72f7-7" target="mt9TYMFydwfh3wVz72f7-121">
          <mxGeometry relative="1" as="geometry" />
        </mxCell>
        <mxCell id="mt9TYMFydwfh3wVz72f7-130" style="edgeStyle=orthogonalEdgeStyle;rounded=0;orthogonalLoop=1;jettySize=auto;html=1;exitX=0.5;exitY=1;exitDx=0;exitDy=0;entryX=0;entryY=0.5;entryDx=0;entryDy=0;fillColor=#fff2cc;strokeColor=#d6b656;" edge="1" parent="1" source="mt9TYMFydwfh3wVz72f7-7" target="mt9TYMFydwfh3wVz72f7-122">
          <mxGeometry relative="1" as="geometry" />
        </mxCell>
        <mxCell id="mt9TYMFydwfh3wVz72f7-131" style="edgeStyle=orthogonalEdgeStyle;rounded=0;orthogonalLoop=1;jettySize=auto;html=1;exitX=0.5;exitY=1;exitDx=0;exitDy=0;entryX=0;entryY=0.5;entryDx=0;entryDy=0;fillColor=#fff2cc;strokeColor=#d6b656;" edge="1" parent="1" source="mt9TYMFydwfh3wVz72f7-7" target="mt9TYMFydwfh3wVz72f7-123">
          <mxGeometry relative="1" as="geometry" />
        </mxCell>
        <mxCell id="mt9TYMFydwfh3wVz72f7-132" style="edgeStyle=orthogonalEdgeStyle;rounded=0;orthogonalLoop=1;jettySize=auto;html=1;exitX=0.5;exitY=1;exitDx=0;exitDy=0;entryX=0;entryY=0.5;entryDx=0;entryDy=0;fillColor=#fff2cc;strokeColor=#d6b656;" edge="1" parent="1" source="mt9TYMFydwfh3wVz72f7-7" target="mt9TYMFydwfh3wVz72f7-124">
          <mxGeometry relative="1" as="geometry" />
        </mxCell>
        <mxCell id="mt9TYMFydwfh3wVz72f7-7" value="Open LLMs Access" style="rounded=1;whiteSpace=wrap;html=1;fillColor=#e3c800;fontColor=#000000;strokeColor=#B09500;" vertex="1" parent="1">
          <mxGeometry x="960" y="160" width="120" height="60" as="geometry" />
        </mxCell>
        <mxCell id="mt9TYMFydwfh3wVz72f7-134" style="edgeStyle=orthogonalEdgeStyle;rounded=0;orthogonalLoop=1;jettySize=auto;html=1;exitX=1;exitY=0.5;exitDx=0;exitDy=0;entryX=0;entryY=0.5;entryDx=0;entryDy=0;fillColor=#ffe6cc;strokeColor=#d79b00;" edge="1" parent="1" source="mt9TYMFydwfh3wVz72f7-8" target="mt9TYMFydwfh3wVz72f7-125">
          <mxGeometry relative="1" as="geometry" />
        </mxCell>
        <mxCell id="mt9TYMFydwfh3wVz72f7-135" style="edgeStyle=orthogonalEdgeStyle;rounded=0;orthogonalLoop=1;jettySize=auto;html=1;exitX=1;exitY=0.5;exitDx=0;exitDy=0;entryX=0;entryY=0.5;entryDx=0;entryDy=0;fillColor=#ffe6cc;strokeColor=#d79b00;" edge="1" parent="1" source="mt9TYMFydwfh3wVz72f7-8" target="mt9TYMFydwfh3wVz72f7-126">
          <mxGeometry relative="1" as="geometry" />
        </mxCell>
        <mxCell id="mt9TYMFydwfh3wVz72f7-136" style="edgeStyle=orthogonalEdgeStyle;rounded=0;orthogonalLoop=1;jettySize=auto;html=1;exitX=1;exitY=0.5;exitDx=0;exitDy=0;entryX=0;entryY=0.5;entryDx=0;entryDy=0;fillColor=#ffe6cc;strokeColor=#d79b00;" edge="1" parent="1" source="mt9TYMFydwfh3wVz72f7-8" target="mt9TYMFydwfh3wVz72f7-127">
          <mxGeometry relative="1" as="geometry" />
        </mxCell>
        <mxCell id="mt9TYMFydwfh3wVz72f7-8" value="Evaluation" style="rounded=1;whiteSpace=wrap;html=1;fillColor=#a0522d;fontColor=#ffffff;strokeColor=#6D1F00;" vertex="1" parent="1">
          <mxGeometry x="1080" y="60" width="120" height="60" as="geometry" />
        </mxCell>
        <mxCell id="mt9TYMFydwfh3wVz72f7-40" style="edgeStyle=orthogonalEdgeStyle;rounded=0;orthogonalLoop=1;jettySize=auto;html=1;exitX=0.5;exitY=0;exitDx=0;exitDy=0;entryX=0;entryY=0.5;entryDx=0;entryDy=0;fillColor=#d5e8d4;strokeColor=#82b366;" edge="1" parent="1" source="mt9TYMFydwfh3wVz72f7-16" target="mt9TYMFydwfh3wVz72f7-28">
          <mxGeometry relative="1" as="geometry" />
        </mxCell>
        <mxCell id="mt9TYMFydwfh3wVz72f7-41" style="edgeStyle=orthogonalEdgeStyle;rounded=0;orthogonalLoop=1;jettySize=auto;html=1;exitX=0.5;exitY=0;exitDx=0;exitDy=0;entryX=0;entryY=0.5;entryDx=0;entryDy=0;fillColor=#d5e8d4;strokeColor=#82b366;" edge="1" parent="1" source="mt9TYMFydwfh3wVz72f7-16" target="mt9TYMFydwfh3wVz72f7-29">
          <mxGeometry relative="1" as="geometry" />
        </mxCell>
        <mxCell id="mt9TYMFydwfh3wVz72f7-42" style="edgeStyle=orthogonalEdgeStyle;rounded=0;orthogonalLoop=1;jettySize=auto;html=1;exitX=0.5;exitY=0;exitDx=0;exitDy=0;entryX=0;entryY=0.5;entryDx=0;entryDy=0;fillColor=#d5e8d4;strokeColor=#82b366;" edge="1" parent="1" source="mt9TYMFydwfh3wVz72f7-16" target="mt9TYMFydwfh3wVz72f7-27">
          <mxGeometry relative="1" as="geometry" />
        </mxCell>
        <mxCell id="mt9TYMFydwfh3wVz72f7-43" style="edgeStyle=orthogonalEdgeStyle;rounded=0;orthogonalLoop=1;jettySize=auto;html=1;exitX=0.5;exitY=0;exitDx=0;exitDy=0;entryX=0;entryY=0.5;entryDx=0;entryDy=0;fillColor=#d5e8d4;strokeColor=#82b366;" edge="1" parent="1" source="mt9TYMFydwfh3wVz72f7-16" target="mt9TYMFydwfh3wVz72f7-26">
          <mxGeometry relative="1" as="geometry" />
        </mxCell>
        <mxCell id="mt9TYMFydwfh3wVz72f7-44" style="edgeStyle=orthogonalEdgeStyle;rounded=0;orthogonalLoop=1;jettySize=auto;html=1;exitX=0.5;exitY=0;exitDx=0;exitDy=0;entryX=0;entryY=0.5;entryDx=0;entryDy=0;fillColor=#d5e8d4;strokeColor=#82b366;" edge="1" parent="1" source="mt9TYMFydwfh3wVz72f7-16" target="mt9TYMFydwfh3wVz72f7-25">
          <mxGeometry relative="1" as="geometry" />
        </mxCell>
        <mxCell id="mt9TYMFydwfh3wVz72f7-45" style="edgeStyle=orthogonalEdgeStyle;rounded=0;orthogonalLoop=1;jettySize=auto;html=1;exitX=0.5;exitY=0;exitDx=0;exitDy=0;entryX=0;entryY=0.5;entryDx=0;entryDy=0;fillColor=#d5e8d4;strokeColor=#82b366;" edge="1" parent="1" source="mt9TYMFydwfh3wVz72f7-16" target="mt9TYMFydwfh3wVz72f7-24">
          <mxGeometry relative="1" as="geometry" />
        </mxCell>
        <mxCell id="mt9TYMFydwfh3wVz72f7-16" value="Open LLMs" style="rounded=1;whiteSpace=wrap;html=1;fillColor=#d5e8d4;strokeColor=#82b366;" vertex="1" parent="1">
          <mxGeometry x="440" y="-220" width="120" height="60" as="geometry" />
        </mxCell>
        <mxCell id="mt9TYMFydwfh3wVz72f7-46" style="edgeStyle=orthogonalEdgeStyle;rounded=0;orthogonalLoop=1;jettySize=auto;html=1;exitX=0.5;exitY=0;exitDx=0;exitDy=0;entryX=1;entryY=0.5;entryDx=0;entryDy=0;fillColor=#d5e8d4;strokeColor=#82b366;" edge="1" parent="1" source="mt9TYMFydwfh3wVz72f7-17" target="mt9TYMFydwfh3wVz72f7-36">
          <mxGeometry relative="1" as="geometry" />
        </mxCell>
        <mxCell id="mt9TYMFydwfh3wVz72f7-47" style="edgeStyle=orthogonalEdgeStyle;rounded=0;orthogonalLoop=1;jettySize=auto;html=1;exitX=0.5;exitY=0;exitDx=0;exitDy=0;entryX=1;entryY=0.5;entryDx=0;entryDy=0;fillColor=#d5e8d4;strokeColor=#82b366;" edge="1" parent="1" source="mt9TYMFydwfh3wVz72f7-17" target="mt9TYMFydwfh3wVz72f7-35">
          <mxGeometry relative="1" as="geometry" />
        </mxCell>
        <mxCell id="mt9TYMFydwfh3wVz72f7-48" style="edgeStyle=orthogonalEdgeStyle;rounded=0;orthogonalLoop=1;jettySize=auto;html=1;exitX=0.5;exitY=0;exitDx=0;exitDy=0;entryX=1;entryY=0.5;entryDx=0;entryDy=0;fillColor=#d5e8d4;strokeColor=#82b366;" edge="1" parent="1" source="mt9TYMFydwfh3wVz72f7-17" target="mt9TYMFydwfh3wVz72f7-34">
          <mxGeometry relative="1" as="geometry" />
        </mxCell>
        <mxCell id="mt9TYMFydwfh3wVz72f7-49" style="edgeStyle=orthogonalEdgeStyle;rounded=0;orthogonalLoop=1;jettySize=auto;html=1;exitX=0.5;exitY=0;exitDx=0;exitDy=0;entryX=1;entryY=0.5;entryDx=0;entryDy=0;fillColor=#d5e8d4;strokeColor=#82b366;" edge="1" parent="1" source="mt9TYMFydwfh3wVz72f7-17" target="mt9TYMFydwfh3wVz72f7-33">
          <mxGeometry relative="1" as="geometry" />
        </mxCell>
        <mxCell id="mt9TYMFydwfh3wVz72f7-50" style="edgeStyle=orthogonalEdgeStyle;rounded=0;orthogonalLoop=1;jettySize=auto;html=1;exitX=0.5;exitY=0;exitDx=0;exitDy=0;entryX=1;entryY=0.5;entryDx=0;entryDy=0;fillColor=#d5e8d4;strokeColor=#82b366;" edge="1" parent="1" source="mt9TYMFydwfh3wVz72f7-17" target="mt9TYMFydwfh3wVz72f7-32">
          <mxGeometry relative="1" as="geometry" />
        </mxCell>
        <mxCell id="mt9TYMFydwfh3wVz72f7-51" style="edgeStyle=orthogonalEdgeStyle;rounded=0;orthogonalLoop=1;jettySize=auto;html=1;exitX=0.5;exitY=0;exitDx=0;exitDy=0;entryX=1;entryY=0.5;entryDx=0;entryDy=0;fillColor=#d5e8d4;strokeColor=#82b366;" edge="1" parent="1" source="mt9TYMFydwfh3wVz72f7-17" target="mt9TYMFydwfh3wVz72f7-31">
          <mxGeometry relative="1" as="geometry" />
        </mxCell>
        <mxCell id="mt9TYMFydwfh3wVz72f7-17" value="Close LLMs" style="rounded=1;whiteSpace=wrap;html=1;fillColor=#d5e8d4;strokeColor=#82b366;" vertex="1" parent="1">
          <mxGeometry x="840" y="-220" width="120" height="60" as="geometry" />
        </mxCell>
        <mxCell id="mt9TYMFydwfh3wVz72f7-108" style="edgeStyle=orthogonalEdgeStyle;rounded=0;orthogonalLoop=1;jettySize=auto;html=1;exitX=0.5;exitY=1;exitDx=0;exitDy=0;entryX=0;entryY=0.5;entryDx=0;entryDy=0;fillColor=#dae8fc;strokeColor=#6c8ebf;" edge="1" parent="1" source="mt9TYMFydwfh3wVz72f7-20" target="mt9TYMFydwfh3wVz72f7-105">
          <mxGeometry relative="1" as="geometry" />
        </mxCell>
        <mxCell id="mt9TYMFydwfh3wVz72f7-109" style="edgeStyle=orthogonalEdgeStyle;rounded=0;orthogonalLoop=1;jettySize=auto;html=1;exitX=0.5;exitY=1;exitDx=0;exitDy=0;entryX=0;entryY=0.5;entryDx=0;entryDy=0;fillColor=#dae8fc;strokeColor=#6c8ebf;" edge="1" parent="1" source="mt9TYMFydwfh3wVz72f7-20" target="mt9TYMFydwfh3wVz72f7-106">
          <mxGeometry relative="1" as="geometry" />
        </mxCell>
        <mxCell id="mt9TYMFydwfh3wVz72f7-110" style="edgeStyle=orthogonalEdgeStyle;rounded=0;orthogonalLoop=1;jettySize=auto;html=1;exitX=0.5;exitY=1;exitDx=0;exitDy=0;entryX=0;entryY=0.5;entryDx=0;entryDy=0;fillColor=#dae8fc;strokeColor=#6c8ebf;" edge="1" parent="1" source="mt9TYMFydwfh3wVz72f7-20" target="mt9TYMFydwfh3wVz72f7-107">
          <mxGeometry relative="1" as="geometry" />
        </mxCell>
        <mxCell id="mt9TYMFydwfh3wVz72f7-20" value="Web Extraction" style="rounded=1;whiteSpace=wrap;html=1;fillColor=#dae8fc;strokeColor=#6c8ebf;" vertex="1" parent="1">
          <mxGeometry x="440" y="360" width="120" height="60" as="geometry" />
        </mxCell>
        <mxCell id="mt9TYMFydwfh3wVz72f7-116" style="edgeStyle=orthogonalEdgeStyle;rounded=0;orthogonalLoop=1;jettySize=auto;html=1;exitX=0.5;exitY=1;exitDx=0;exitDy=0;entryX=1;entryY=0.5;entryDx=0;entryDy=0;fillColor=#dae8fc;strokeColor=#6c8ebf;" edge="1" parent="1" source="mt9TYMFydwfh3wVz72f7-21" target="mt9TYMFydwfh3wVz72f7-111">
          <mxGeometry relative="1" as="geometry" />
        </mxCell>
        <mxCell id="mt9TYMFydwfh3wVz72f7-117" style="edgeStyle=orthogonalEdgeStyle;rounded=0;orthogonalLoop=1;jettySize=auto;html=1;exitX=0.5;exitY=1;exitDx=0;exitDy=0;entryX=1;entryY=0.5;entryDx=0;entryDy=0;fillColor=#dae8fc;strokeColor=#6c8ebf;" edge="1" parent="1" source="mt9TYMFydwfh3wVz72f7-21" target="mt9TYMFydwfh3wVz72f7-112">
          <mxGeometry relative="1" as="geometry" />
        </mxCell>
        <mxCell id="mt9TYMFydwfh3wVz72f7-118" style="edgeStyle=orthogonalEdgeStyle;rounded=0;orthogonalLoop=1;jettySize=auto;html=1;exitX=0.5;exitY=1;exitDx=0;exitDy=0;entryX=1;entryY=0.5;entryDx=0;entryDy=0;fillColor=#dae8fc;strokeColor=#6c8ebf;" edge="1" parent="1" source="mt9TYMFydwfh3wVz72f7-21" target="mt9TYMFydwfh3wVz72f7-113">
          <mxGeometry relative="1" as="geometry" />
        </mxCell>
        <mxCell id="mt9TYMFydwfh3wVz72f7-120" style="edgeStyle=orthogonalEdgeStyle;rounded=0;orthogonalLoop=1;jettySize=auto;html=1;exitX=0.5;exitY=1;exitDx=0;exitDy=0;entryX=1;entryY=0.5;entryDx=0;entryDy=0;fillColor=#dae8fc;strokeColor=#6c8ebf;" edge="1" parent="1" source="mt9TYMFydwfh3wVz72f7-21" target="mt9TYMFydwfh3wVz72f7-114">
          <mxGeometry relative="1" as="geometry" />
        </mxCell>
        <mxCell id="mt9TYMFydwfh3wVz72f7-21" value="Documents Extraction" style="rounded=1;whiteSpace=wrap;html=1;fillColor=#dae8fc;strokeColor=#6c8ebf;" vertex="1" parent="1">
          <mxGeometry x="840" y="360" width="120" height="60" as="geometry" />
        </mxCell>
        <mxCell id="mt9TYMFydwfh3wVz72f7-24" value="Llama" style="rounded=1;whiteSpace=wrap;html=1;fillColor=#d5e8d4;strokeColor=#82b366;" vertex="1" parent="1">
          <mxGeometry x="560" y="-550" width="120" height="30" as="geometry" />
        </mxCell>
        <mxCell id="mt9TYMFydwfh3wVz72f7-25" value="Mistral" style="rounded=1;whiteSpace=wrap;html=1;fillColor=#d5e8d4;strokeColor=#82b366;" vertex="1" parent="1">
          <mxGeometry x="560" y="-495" width="120" height="30" as="geometry" />
        </mxCell>
        <mxCell id="mt9TYMFydwfh3wVz72f7-26" value="Phi" style="rounded=1;whiteSpace=wrap;html=1;fillColor=#d5e8d4;strokeColor=#82b366;" vertex="1" parent="1">
          <mxGeometry x="560" y="-440" width="120" height="30" as="geometry" />
        </mxCell>
        <mxCell id="mt9TYMFydwfh3wVz72f7-27" value="Deepseek" style="rounded=1;whiteSpace=wrap;html=1;fillColor=#d5e8d4;strokeColor=#82b366;" vertex="1" parent="1">
          <mxGeometry x="560" y="-390" width="120" height="30" as="geometry" />
        </mxCell>
        <mxCell id="mt9TYMFydwfh3wVz72f7-28" value="Qwen" style="rounded=1;whiteSpace=wrap;html=1;fillColor=#d5e8d4;strokeColor=#82b366;" vertex="1" parent="1">
          <mxGeometry x="560" y="-290" width="120" height="30" as="geometry" />
        </mxCell>
        <mxCell id="mt9TYMFydwfh3wVz72f7-29" value="Gemma" style="rounded=1;whiteSpace=wrap;html=1;fillColor=#d5e8d4;strokeColor=#82b366;" vertex="1" parent="1">
          <mxGeometry x="560" y="-340" width="120" height="30" as="geometry" />
        </mxCell>
        <mxCell id="mt9TYMFydwfh3wVz72f7-31" value="OpenAI" style="rounded=1;whiteSpace=wrap;html=1;fillColor=#d5e8d4;strokeColor=#82b366;" vertex="1" parent="1">
          <mxGeometry x="720" y="-550" width="120" height="30" as="geometry" />
        </mxCell>
        <mxCell id="mt9TYMFydwfh3wVz72f7-32" value="Claude" style="rounded=1;whiteSpace=wrap;html=1;fillColor=#d5e8d4;strokeColor=#82b366;" vertex="1" parent="1">
          <mxGeometry x="720" y="-495" width="120" height="30" as="geometry" />
        </mxCell>
        <mxCell id="mt9TYMFydwfh3wVz72f7-33" value="Gemini" style="rounded=1;whiteSpace=wrap;html=1;fillColor=#d5e8d4;strokeColor=#82b366;" vertex="1" parent="1">
          <mxGeometry x="720" y="-440" width="120" height="30" as="geometry" />
        </mxCell>
        <mxCell id="mt9TYMFydwfh3wVz72f7-34" value="Watson.x" style="rounded=1;whiteSpace=wrap;html=1;fillColor=#d5e8d4;strokeColor=#82b366;" vertex="1" parent="1">
          <mxGeometry x="720" y="-390" width="120" height="30" as="geometry" />
        </mxCell>
        <mxCell id="mt9TYMFydwfh3wVz72f7-35" value="Amazon" style="rounded=1;whiteSpace=wrap;html=1;fillColor=#d5e8d4;strokeColor=#82b366;" vertex="1" parent="1">
          <mxGeometry x="720" y="-340" width="120" height="30" as="geometry" />
        </mxCell>
        <mxCell id="mt9TYMFydwfh3wVz72f7-36" value="Cohere" style="rounded=1;whiteSpace=wrap;html=1;fillColor=#d5e8d4;strokeColor=#82b366;" vertex="1" parent="1">
          <mxGeometry x="720" y="-290" width="120" height="30" as="geometry" />
        </mxCell>
        <mxCell id="mt9TYMFydwfh3wVz72f7-52" value="Ollama" style="rounded=1;whiteSpace=wrap;html=1;fillColor=#e1d5e7;strokeColor=#9673a6;" vertex="1" parent="1">
          <mxGeometry y="-270" width="120" height="30" as="geometry" />
        </mxCell>
        <mxCell id="mt9TYMFydwfh3wVz72f7-65" style="edgeStyle=orthogonalEdgeStyle;rounded=0;orthogonalLoop=1;jettySize=auto;html=1;exitX=0.5;exitY=0;exitDx=0;exitDy=0;entryX=1;entryY=0.5;entryDx=0;entryDy=0;fillColor=#e1d5e7;strokeColor=#9673a6;" edge="1" parent="1" source="mt9TYMFydwfh3wVz72f7-53" target="mt9TYMFydwfh3wVz72f7-56">
          <mxGeometry relative="1" as="geometry" />
        </mxCell>
        <mxCell id="mt9TYMFydwfh3wVz72f7-66" style="edgeStyle=orthogonalEdgeStyle;rounded=0;orthogonalLoop=1;jettySize=auto;html=1;exitX=0.5;exitY=0;exitDx=0;exitDy=0;entryX=1;entryY=0.5;entryDx=0;entryDy=0;fillColor=#e1d5e7;strokeColor=#9673a6;" edge="1" parent="1" source="mt9TYMFydwfh3wVz72f7-53" target="mt9TYMFydwfh3wVz72f7-55">
          <mxGeometry relative="1" as="geometry" />
        </mxCell>
        <mxCell id="mt9TYMFydwfh3wVz72f7-67" style="edgeStyle=orthogonalEdgeStyle;rounded=0;orthogonalLoop=1;jettySize=auto;html=1;exitX=0.5;exitY=0;exitDx=0;exitDy=0;entryX=1;entryY=0.5;entryDx=0;entryDy=0;fillColor=#e1d5e7;strokeColor=#9673a6;" edge="1" parent="1" source="mt9TYMFydwfh3wVz72f7-53" target="mt9TYMFydwfh3wVz72f7-52">
          <mxGeometry relative="1" as="geometry" />
        </mxCell>
        <mxCell id="mt9TYMFydwfh3wVz72f7-53" value="Open Embedding" style="rounded=1;whiteSpace=wrap;html=1;fillColor=#e1d5e7;strokeColor=#9673a6;" vertex="1" parent="1">
          <mxGeometry x="120" y="-100" width="120" height="60" as="geometry" />
        </mxCell>
        <mxCell id="mt9TYMFydwfh3wVz72f7-68" style="edgeStyle=orthogonalEdgeStyle;rounded=0;orthogonalLoop=1;jettySize=auto;html=1;exitX=0.5;exitY=1;exitDx=0;exitDy=0;entryX=1;entryY=0.5;entryDx=0;entryDy=0;fillColor=#e1d5e7;strokeColor=#9673a6;" edge="1" parent="1" source="mt9TYMFydwfh3wVz72f7-54" target="mt9TYMFydwfh3wVz72f7-57">
          <mxGeometry relative="1" as="geometry" />
        </mxCell>
        <mxCell id="mt9TYMFydwfh3wVz72f7-69" style="edgeStyle=orthogonalEdgeStyle;rounded=0;orthogonalLoop=1;jettySize=auto;html=1;exitX=0.5;exitY=1;exitDx=0;exitDy=0;entryX=1;entryY=0.5;entryDx=0;entryDy=0;fillColor=#e1d5e7;strokeColor=#9673a6;" edge="1" parent="1" source="mt9TYMFydwfh3wVz72f7-54" target="mt9TYMFydwfh3wVz72f7-59">
          <mxGeometry relative="1" as="geometry" />
        </mxCell>
        <mxCell id="mt9TYMFydwfh3wVz72f7-70" style="edgeStyle=orthogonalEdgeStyle;rounded=0;orthogonalLoop=1;jettySize=auto;html=1;exitX=0.5;exitY=1;exitDx=0;exitDy=0;entryX=1;entryY=0.5;entryDx=0;entryDy=0;fillColor=#e1d5e7;strokeColor=#9673a6;" edge="1" parent="1" source="mt9TYMFydwfh3wVz72f7-54" target="mt9TYMFydwfh3wVz72f7-60">
          <mxGeometry relative="1" as="geometry" />
        </mxCell>
        <mxCell id="mt9TYMFydwfh3wVz72f7-71" style="edgeStyle=orthogonalEdgeStyle;rounded=0;orthogonalLoop=1;jettySize=auto;html=1;exitX=0.5;exitY=1;exitDx=0;exitDy=0;entryX=1;entryY=0.5;entryDx=0;entryDy=0;fillColor=#e1d5e7;strokeColor=#9673a6;" edge="1" parent="1" source="mt9TYMFydwfh3wVz72f7-54" target="mt9TYMFydwfh3wVz72f7-61">
          <mxGeometry relative="1" as="geometry" />
        </mxCell>
        <mxCell id="mt9TYMFydwfh3wVz72f7-54" value="Close Embedding" style="rounded=1;whiteSpace=wrap;html=1;fillColor=#e1d5e7;strokeColor=#9673a6;" vertex="1" parent="1">
          <mxGeometry x="120" y="20" width="120" height="60" as="geometry" />
        </mxCell>
        <mxCell id="mt9TYMFydwfh3wVz72f7-55" value="SBERT" style="rounded=1;whiteSpace=wrap;html=1;fillColor=#e1d5e7;strokeColor=#9673a6;" vertex="1" parent="1">
          <mxGeometry y="-220" width="120" height="30" as="geometry" />
        </mxCell>
        <mxCell id="mt9TYMFydwfh3wVz72f7-56" value="Nomic" style="rounded=1;whiteSpace=wrap;html=1;fillColor=#e1d5e7;strokeColor=#9673a6;" vertex="1" parent="1">
          <mxGeometry y="-170" width="120" height="30" as="geometry" />
        </mxCell>
        <mxCell id="mt9TYMFydwfh3wVz72f7-57" value="OpenAI" style="rounded=1;whiteSpace=wrap;html=1;fillColor=#e1d5e7;strokeColor=#9673a6;" vertex="1" parent="1">
          <mxGeometry y="120" width="120" height="30" as="geometry" />
        </mxCell>
        <mxCell id="mt9TYMFydwfh3wVz72f7-59" value="Gemini" style="rounded=1;whiteSpace=wrap;html=1;fillColor=#e1d5e7;strokeColor=#9673a6;" vertex="1" parent="1">
          <mxGeometry y="170" width="120" height="30" as="geometry" />
        </mxCell>
        <mxCell id="mt9TYMFydwfh3wVz72f7-60" value="Cohere" style="rounded=1;whiteSpace=wrap;html=1;fillColor=#e1d5e7;strokeColor=#9673a6;" vertex="1" parent="1">
          <mxGeometry y="220" width="120" height="30" as="geometry" />
        </mxCell>
        <mxCell id="mt9TYMFydwfh3wVz72f7-61" value="VoyageAI" style="rounded=1;whiteSpace=wrap;html=1;fillColor=#e1d5e7;strokeColor=#9673a6;" vertex="1" parent="1">
          <mxGeometry y="270" width="120" height="30" as="geometry" />
        </mxCell>
        <mxCell id="mt9TYMFydwfh3wVz72f7-72" value="LangChain" style="rounded=1;whiteSpace=wrap;html=1;fillColor=#bac8d3;strokeColor=#23445d;" vertex="1" parent="1">
          <mxGeometry x="240" y="270" width="120" height="30" as="geometry" />
        </mxCell>
        <mxCell id="mt9TYMFydwfh3wVz72f7-73" value="LlamaIndex" style="rounded=1;whiteSpace=wrap;html=1;fillColor=#bac8d3;strokeColor=#23445d;" vertex="1" parent="1">
          <mxGeometry x="240" y="320" width="120" height="30" as="geometry" />
        </mxCell>
        <mxCell id="mt9TYMFydwfh3wVz72f7-74" value="CrewAI" style="rounded=1;whiteSpace=wrap;html=1;fillColor=#bac8d3;strokeColor=#23445d;" vertex="1" parent="1">
          <mxGeometry x="240" y="370" width="120" height="30" as="geometry" />
        </mxCell>
        <mxCell id="mt9TYMFydwfh3wVz72f7-75" value="Haystack" style="rounded=1;whiteSpace=wrap;html=1;fillColor=#bac8d3;strokeColor=#23445d;" vertex="1" parent="1">
          <mxGeometry x="240" y="420" width="120" height="30" as="geometry" />
        </mxCell>
        <mxCell id="mt9TYMFydwfh3wVz72f7-76" value="Txtai" style="rounded=1;whiteSpace=wrap;html=1;fillColor=#bac8d3;strokeColor=#23445d;" vertex="1" parent="1">
          <mxGeometry x="240" y="470" width="120" height="30" as="geometry" />
        </mxCell>
        <mxCell id="mt9TYMFydwfh3wVz72f7-82" value="Pinecone" style="rounded=1;whiteSpace=wrap;html=1;fillColor=#f8cecc;strokeColor=#b85450;" vertex="1" parent="1">
          <mxGeometry x="1080" y="-310" width="120" height="30" as="geometry" />
        </mxCell>
        <mxCell id="mt9TYMFydwfh3wVz72f7-83" value="Chroma" style="rounded=1;whiteSpace=wrap;html=1;fillColor=#f8cecc;strokeColor=#b85450;" vertex="1" parent="1">
          <mxGeometry x="1080" y="-260" width="120" height="30" as="geometry" />
        </mxCell>
        <mxCell id="mt9TYMFydwfh3wVz72f7-84" value="Milvus" style="rounded=1;whiteSpace=wrap;html=1;fillColor=#f8cecc;strokeColor=#b85450;" vertex="1" parent="1">
          <mxGeometry x="1080" y="-210" width="120" height="30" as="geometry" />
        </mxCell>
        <mxCell id="mt9TYMFydwfh3wVz72f7-85" value="FAISS" style="rounded=1;whiteSpace=wrap;html=1;fillColor=#f8cecc;strokeColor=#b85450;" vertex="1" parent="1">
          <mxGeometry x="1080" y="-160" width="120" height="30" as="geometry" />
        </mxCell>
        <mxCell id="mt9TYMFydwfh3wVz72f7-86" value="pgvector" style="rounded=1;whiteSpace=wrap;html=1;fillColor=#f8cecc;strokeColor=#b85450;" vertex="1" parent="1">
          <mxGeometry x="1080" y="-360" width="120" height="30" as="geometry" />
        </mxCell>
        <mxCell id="mt9TYMFydwfh3wVz72f7-87" value="Weaviate" style="rounded=1;whiteSpace=wrap;html=1;fillColor=#f8cecc;strokeColor=#b85450;" vertex="1" parent="1">
          <mxGeometry x="1080" y="-110" width="120" height="30" as="geometry" />
        </mxCell>
        <mxCell id="mt9TYMFydwfh3wVz72f7-88" value="Qdrant" style="rounded=1;whiteSpace=wrap;html=1;fillColor=#f8cecc;strokeColor=#b85450;" vertex="1" parent="1">
          <mxGeometry x="1080" y="-410" width="120" height="30" as="geometry" />
        </mxCell>
        <mxCell id="mt9TYMFydwfh3wVz72f7-101" value="NeMO" style="rounded=1;whiteSpace=wrap;html=1;fillColor=#bac8d3;strokeColor=#23445d;" vertex="1" parent="1">
          <mxGeometry x="240" y="520" width="120" height="30" as="geometry" />
        </mxCell>
        <mxCell id="mt9TYMFydwfh3wVz72f7-103" value="FlowiseAI" style="rounded=1;whiteSpace=wrap;html=1;fillColor=#bac8d3;strokeColor=#23445d;" vertex="1" parent="1">
          <mxGeometry x="240" y="570" width="120" height="30" as="geometry" />
        </mxCell>
        <mxCell id="mt9TYMFydwfh3wVz72f7-105" value="Crawl4AI" style="rounded=1;whiteSpace=wrap;html=1;fillColor=#dae8fc;strokeColor=#6c8ebf;" vertex="1" parent="1">
          <mxGeometry x="560" y="480" width="120" height="30" as="geometry" />
        </mxCell>
        <mxCell id="mt9TYMFydwfh3wVz72f7-106" value="ScrapeGraphAI" style="rounded=1;whiteSpace=wrap;html=1;fillColor=#dae8fc;strokeColor=#6c8ebf;" vertex="1" parent="1">
          <mxGeometry x="560" y="530" width="120" height="30" as="geometry" />
        </mxCell>
        <mxCell id="mt9TYMFydwfh3wVz72f7-107" value="FireCrawl" style="rounded=1;whiteSpace=wrap;html=1;fillColor=#dae8fc;strokeColor=#6c8ebf;" vertex="1" parent="1">
          <mxGeometry x="560" y="580" width="120" height="30" as="geometry" />
        </mxCell>
        <mxCell id="mt9TYMFydwfh3wVz72f7-111" value="LlamaParse" style="rounded=1;whiteSpace=wrap;html=1;fillColor=#dae8fc;strokeColor=#6c8ebf;" vertex="1" parent="1">
          <mxGeometry x="720" y="480" width="120" height="30" as="geometry" />
        </mxCell>
        <mxCell id="mt9TYMFydwfh3wVz72f7-112" value="MegaParser" style="rounded=1;whiteSpace=wrap;html=1;fillColor=#dae8fc;strokeColor=#6c8ebf;" vertex="1" parent="1">
          <mxGeometry x="720" y="530" width="120" height="30" as="geometry" />
        </mxCell>
        <mxCell id="mt9TYMFydwfh3wVz72f7-113" value="Docling" style="rounded=1;whiteSpace=wrap;html=1;fillColor=#dae8fc;strokeColor=#6c8ebf;" vertex="1" parent="1">
          <mxGeometry x="720" y="580" width="120" height="30" as="geometry" />
        </mxCell>
        <mxCell id="mt9TYMFydwfh3wVz72f7-114" value="ExtractThinker" style="rounded=1;whiteSpace=wrap;html=1;fillColor=#dae8fc;strokeColor=#6c8ebf;" vertex="1" parent="1">
          <mxGeometry x="720" y="630" width="120" height="30" as="geometry" />
        </mxCell>
        <mxCell id="mt9TYMFydwfh3wVz72f7-121" value="HuggingFace" style="rounded=1;whiteSpace=wrap;html=1;fillColor=#fff2cc;strokeColor=#d6b656;" vertex="1" parent="1">
          <mxGeometry x="1080" y="270" width="120" height="30" as="geometry" />
        </mxCell>
        <mxCell id="mt9TYMFydwfh3wVz72f7-122" value="Groq" style="rounded=1;whiteSpace=wrap;html=1;fillColor=#fff2cc;strokeColor=#d6b656;" vertex="1" parent="1">
          <mxGeometry x="1080" y="320" width="120" height="30" as="geometry" />
        </mxCell>
        <mxCell id="mt9TYMFydwfh3wVz72f7-123" value="Ollama" style="rounded=1;whiteSpace=wrap;html=1;fillColor=#fff2cc;strokeColor=#d6b656;" vertex="1" parent="1">
          <mxGeometry x="1080" y="370" width="120" height="30" as="geometry" />
        </mxCell>
        <mxCell id="mt9TYMFydwfh3wVz72f7-124" value="TogetherAI" style="rounded=1;whiteSpace=wrap;html=1;fillColor=#fff2cc;strokeColor=#d6b656;" vertex="1" parent="1">
          <mxGeometry x="1080" y="420" width="120" height="30" as="geometry" />
        </mxCell>
        <mxCell id="mt9TYMFydwfh3wVz72f7-125" value="Ragas" style="rounded=1;whiteSpace=wrap;html=1;fillColor=#ffe6cc;strokeColor=#d79b00;" vertex="1" parent="1">
          <mxGeometry x="1270" y="25" width="120" height="30" as="geometry" />
        </mxCell>
        <mxCell id="mt9TYMFydwfh3wVz72f7-126" value="Giskard" style="rounded=1;whiteSpace=wrap;html=1;fillColor=#ffe6cc;strokeColor=#d79b00;" vertex="1" parent="1">
          <mxGeometry x="1270" y="75" width="120" height="30" as="geometry" />
        </mxCell>
        <mxCell id="mt9TYMFydwfh3wVz72f7-127" value="Trulens" style="rounded=1;whiteSpace=wrap;html=1;fillColor=#ffe6cc;strokeColor=#d79b00;" vertex="1" parent="1">
          <mxGeometry x="1270" y="125" width="120" height="30" as="geometry" />
        </mxCell>
      </root>
    </mxGraphModel>
  </diagram>
</mxfile>
